<svg height="20" viewBox="0 0 31 20" width="31" xmlns="http://www.w3.org/2000/svg"><path d="m.63 14.17c0-1.33.41-2.52 1.24-3.55s1.89-1.7 3.19-1.99c.34-1.58 1.14-2.86 2.39-3.86s2.69-1.5 4.31-1.5c1.58 0 3 .49 4.24 1.46 1.24.98 2.05 2.23 2.42 3.75h.36c1.58 0 2.92.55 4.03 1.66 1.12 1.11 1.67 2.45 1.67 4.03s-.56 2.92-1.67 4.04-2.46 1.68-4.03 1.68h-12.43c-.77 0-1.51-.15-2.22-.45s-1.32-.71-1.83-1.22-.92-1.12-1.22-1.83-.45-1.45-.45-2.22zm1.95 0c0 1.02.37 1.9 1.11 2.63s1.63 1.1 2.66 1.1h12.44c1.04 0 1.93-.37 2.66-1.1.74-.73 1.11-1.61 1.11-2.63s-.37-1.9-1.11-2.63-1.63-1.09-2.66-1.09h-1.86c-.13 0-.2-.07-.2-.2l-.09-.65c-.13-1.27-.66-2.31-1.59-3.15-.93-.83-2.02-1.25-3.29-1.25-1.26 0-2.36.42-3.3 1.26-.93.84-1.46 1.88-1.58 3.14l-.08.56c0 .13-.07.2-.21.2l-.6.09c-.96.08-1.77.48-2.42 1.19-.67.71-.99 1.55-.99 2.53zm16.55-13.82c-1.89 0-3.46.71-4.69 2.12-.13.13-.1.22.1.28.58.25 1.06.5 1.45.74.15.04.25.03.3-.04.81-.77 1.76-1.16 2.84-1.16s2.02.36 2.81 1.09 1.23 1.62 1.33 2.68l.13.85h1.9c.87 0 1.62.31 2.25.94.63.62.94 1.37.94 2.23 0 .8-.28 1.5-.83 2.1-.55.59-1.24.94-2.05 1.03-.13 0-.2.07-.2.21v1.52c0 .14.07.21.2.21 1.35-.08 2.49-.62 3.42-1.59.93-.98 1.4-2.14 1.4-3.48 0-1.42-.5-2.62-1.5-3.63-1-1-2.21-1.5-3.63-1.5h-.2c-.35-1.34-1.09-2.44-2.21-3.31-1.13-.85-2.38-1.29-3.76-1.29z" fill="#c02"/></svg>