<svg width="61" height="29" viewBox="0 0 61 29" fill="none" xmlns="http://www.w3.org/2000/svg">
<path d="M29.0651 0.674805L29.307 0.67788L29.5746 0.687105L30.0163 0.714779L30.3351 0.744505L30.6723 0.783455L31.0239 0.834705L31.3878 0.896204L31.5754 0.93208L31.9546 1.01408L32.1494 1.06021L32.5399 1.1627C32.8679 1.25598 33.202 1.36565 33.5362 1.49378L33.9359 1.65675C36.3262 2.692 38.5874 4.76865 38.7084 8.84713L38.7135 9.19153V9.4734C38.7135 10.2114 38.6796 10.81 38.3434 11.1626C38.0708 11.4793 37.7172 11.6823 37.1831 11.7192L36.9986 11.7253H33.3343C32.5983 11.7253 31.8009 11.4383 31.6686 10.2555L31.6533 10.071C31.6194 9.2971 31.0823 8.48735 29.2332 8.48735C27.7009 8.48735 27.2898 9.50928 27.1832 10.1509L27.1628 10.316L27.1515 10.4554L27.1484 10.564V18.3878L27.1556 18.5037L27.1709 18.6472C27.255 19.2437 27.6322 20.3128 29.2332 20.3128C30.9409 20.3128 31.5672 19.5697 31.6461 18.8265L31.6533 18.7292C31.7178 17.4551 32.4835 17.1076 33.2236 17.0769L33.3343 17.0748H37.1329C37.7715 17.0748 38.0072 17.286 38.3424 17.6386C38.6489 17.9573 38.7042 18.4524 38.7114 19.1217L38.7135 19.6086C38.7135 25.8734 33.9062 28.1264 28.9975 28.1264C26.4534 28.1269 24.0078 27.1428 22.173 25.3804C20.818 24.0961 19.6485 21.4833 19.5572 19.1586L19.5511 18.8696V9.7194C19.5511 6.97445 20.5259 4.96853 22.2069 3.34903C23.854 1.7654 26.2761 0.674805 29.0651 0.674805ZM16.2526 1.23855C16.8923 1.2734 17.3289 1.5194 17.6651 1.87098C17.9398 2.1918 18.2155 2.71455 18.2627 3.41565L18.2709 3.6309V6.44658C18.2709 6.90373 18.1017 7.4316 17.867 7.74833C17.6806 7.99935 17.439 8.20416 17.1608 8.34693C16.8328 8.50581 16.6186 8.54475 16.433 8.555L16.2537 8.55808H13.3632C13.0485 8.55808 12.9429 8.82458 12.9091 9.00088L12.8937 9.11261L12.8917 9.15668V25.4511C12.8609 26.1481 12.6406 26.6452 12.3515 26.9937L12.2531 27.1044C11.9507 27.4529 11.5663 27.7164 11.0262 27.7656L10.8417 27.7738H7.24392C6.60535 27.7379 6.16768 27.456 5.83148 27.1044C5.52603 26.7529 5.24825 26.3142 5.20007 25.6551L5.1929 25.4501V9.12183C5.1929 8.67288 4.99815 8.54578 4.787 8.52528L4.72242 8.52323H1.93135L1.7571 8.51298C1.64598 8.50171 1.53594 8.48148 1.42808 8.4525L1.20257 8.35718C0.884373 8.22354 0.612177 7.9998 0.419475 7.71348C0.183725 7.40598 0.0515 6.96318 0.0228 6.57368L0.015625 6.41173V3.59606C0.04945 2.82218 0.319025 2.2943 0.655225 1.9417C0.9576 1.62498 1.34197 1.30825 1.88112 1.24778L2.06665 1.23753H16.2526V1.23855ZM47.2507 1.23855C47.8893 1.23855 48.3597 1.48456 48.6959 1.83613C49.0014 2.15593 49.2802 2.59258 49.3273 3.22398L49.3345 3.41975V9.826C49.3345 10.2094 49.4186 10.5056 49.7117 10.5568L49.806 10.564H52.4608C52.7673 10.564 52.9056 10.3026 52.9282 9.93773L52.9323 9.82498V3.41975C52.9323 2.68176 53.2346 2.18771 53.5709 1.83613C53.8988 1.52351 54.2812 1.2939 54.8111 1.24675L55.0161 1.23855H58.6466C59.2862 1.23855 59.7567 1.48456 60.0919 1.83613C60.3953 2.15388 60.67 2.58438 60.7479 3.20553L60.7653 3.42078V25.3804C60.77 25.6737 60.7158 25.965 60.606 26.237C60.4961 26.509 60.3328 26.7562 60.1257 26.964C59.7936 27.2818 59.4062 27.5411 58.866 27.5893L58.6815 27.5975H55.0161C54.3775 27.5626 53.9071 27.3166 53.5709 26.964C53.2005 26.5922 52.9764 26.0996 52.9394 25.5762L52.9323 25.3814V18.6226C52.9323 18.0701 52.7888 17.9379 52.5284 17.9204L52.4618 17.9184H49.806C49.4309 17.9184 49.3458 18.0096 49.3355 18.5016V25.3794C49.3403 25.6727 49.2861 25.964 49.1762 26.236C49.0663 26.508 48.903 26.7552 48.6959 26.963C48.3638 27.2807 47.9764 27.5401 47.4362 27.5882L47.2507 27.5964H43.5863C42.9478 27.5616 42.4773 27.3156 42.1411 26.963C41.7707 26.5912 41.5466 26.0986 41.5097 25.5751L41.5025 25.3804V3.41873C41.5025 2.68073 41.8049 2.18668 42.1411 1.8351C42.4691 1.52248 42.8514 1.29288 43.3813 1.24573L43.5863 1.23753H47.2507V1.23855ZM29.0313 1.7654C24.3132 1.7654 20.7934 5.25758 20.6642 9.8793L20.6601 10.1417V18.4473C20.6601 23.1982 24.2917 26.8933 29.099 26.8933C33.9062 26.8933 37.671 24.3246 37.671 19.503C37.671 18.5129 37.5234 18.0496 37.0612 17.9953L36.9648 17.9901H33.8386C33.3004 17.9901 32.7326 18.0824 32.6116 18.9157L32.5942 19.0807C32.461 20.7556 31.1859 21.2794 30.1445 21.4239L29.878 21.4546L29.6289 21.469L29.4013 21.4741C27.0674 21.4741 26.3735 20.1754 26.1787 19.2263L26.1429 19.0213L26.1213 18.8327L26.1101 18.6636L26.107 18.518V10.1766L26.1142 10.0187L26.1306 9.83831L26.1429 9.74195L26.1787 9.53695C26.3735 8.58678 27.0674 7.28195 29.4013 7.2553L29.6719 7.26146L29.9528 7.28195C31.0905 7.39573 32.3718 7.90618 32.5747 9.44983L32.5952 9.64765C32.6578 10.5753 33.1979 10.7239 33.7371 10.7372L36.9658 10.7393C37.5029 10.7393 37.671 10.2811 37.671 9.22535C37.671 4.4386 33.8386 1.76438 29.0313 1.76438V1.7654ZM16.2537 2.32915H2.06767C1.56542 2.32915 1.1216 2.78938 1.0642 3.33673L1.05805 3.45563V6.55215C1.05805 6.7633 1.1257 7.0093 1.2938 7.1856C1.4373 7.33628 1.65562 7.43571 1.92725 7.46031L2.06665 7.46748H5.5291C5.92988 7.46748 6.1892 7.7924 6.2302 8.11733L6.23532 8.2065V25.5567C6.26607 26.1153 6.67915 26.6124 7.17115 26.676L7.27775 26.6832H10.8755C11.4085 26.6832 11.8534 26.2219 11.9108 25.6746L11.9169 25.5567V8.2065C11.9169 7.94615 12.0317 7.53616 12.4724 7.47466L12.5893 7.46748H16.2865C16.6227 7.46748 16.8912 7.3619 17.0604 7.1856C17.1923 7.04016 17.273 6.85545 17.2899 6.65978L17.2951 6.55215V3.4546C17.2643 2.897 16.8523 2.39885 16.3603 2.33633L16.2537 2.32915ZM47.2507 2.25843H43.5863C43.0226 2.25843 42.5449 2.71865 42.4834 3.266L42.4773 3.3849V25.5208C42.508 26.1122 42.9498 26.5807 43.4736 26.6411L43.5863 26.6473H47.2507C47.8155 26.6473 48.2921 26.2178 48.3536 25.6459L48.3597 25.5208L48.3608 17.5904L48.3731 17.5043C48.4007 17.3454 48.4889 17.0461 48.7554 16.9815L48.864 16.9692H53.4027C53.6959 16.9692 53.8291 17.3044 53.8804 17.4869L53.907 17.6027V25.5208C53.9378 26.0794 54.3796 26.5766 54.9033 26.6401L55.0161 26.6473H58.6466C59.2114 26.6473 59.6891 26.1871 59.7495 25.6397L59.7567 25.5208L59.7895 3.3849C59.7588 2.82628 59.318 2.32915 58.7943 2.2656L58.6815 2.25843H55.0161C54.4523 2.25843 53.9747 2.71865 53.9132 3.266L53.907 3.3849V10.9863C53.907 11.3389 53.824 11.5449 53.5052 11.5798L53.4027 11.5849H48.864C48.5319 11.5849 48.3895 11.3563 48.3638 11.0806L48.3597 10.9863V3.3849C48.329 2.82628 47.8882 2.32915 47.3645 2.2656L47.2507 2.25843ZM29.0651 3.0323C32.628 3.0323 36.3939 4.79223 36.5948 8.8748C36.6255 9.2233 36.4646 9.5144 36.236 9.56975L36.1581 9.57898H34.2752C33.8724 9.57898 33.6028 9.50825 33.5362 9.1208C33.1672 6.90373 31.8214 5.95355 29.1994 5.95355C26.6892 5.95355 25.001 7.83956 24.9006 10.0085L24.8965 10.2124V18.518C24.8965 20.7351 26.5775 22.7759 29.1994 22.7759C31.6194 22.7759 33.1662 21.6853 33.5352 19.5738C33.5967 19.2253 33.8201 19.133 34.1584 19.1187L34.2752 19.1156H36.1581C36.4267 19.1156 36.6297 19.4333 36.5948 19.8198C36.3939 23.9372 32.6957 25.8375 29.1328 25.8375C24.917 25.8375 21.8307 22.4274 21.7067 18.7476L21.7026 18.518V10.2124C21.7026 6.44658 24.7284 3.0323 29.0651 3.0323ZM46.9145 3.31418C47.1533 3.31418 47.3132 3.48125 47.345 3.74058L47.3512 3.84308V11.8309C47.3512 12.1507 47.5736 12.5002 47.8923 12.5607L47.9907 12.571H54.2094C54.6092 12.571 54.8972 12.3332 54.9433 11.9693L54.9495 11.8668V3.8072C54.9495 3.48945 55.1668 3.34493 55.4312 3.31828L55.5204 3.31418H57.8061C58.3617 3.31418 58.662 3.4915 58.6815 3.8195V24.9581C58.6815 25.3425 58.5421 25.5516 58.2131 25.5864L58.1096 25.5915H55.4538L55.4097 25.5731C55.3 25.5249 55.0212 25.3722 54.9607 25.076L54.9495 24.9581V16.6874C54.9495 16.3973 54.6666 16.0478 54.3088 15.9914L54.2094 15.9842H47.9907C47.6545 15.9842 47.4014 16.304 47.3583 16.5992L47.3512 16.6874V24.9591C47.3512 25.3281 47.0488 25.4993 46.8981 25.5618L46.814 25.5926H44.2925C43.7647 25.5926 43.5812 25.3517 43.5556 25.038L43.5525 24.9581V3.87793C43.5525 3.5899 43.7472 3.35928 44.1367 3.32033L44.2587 3.31418H46.9145ZM15.6828 3.49048C15.9503 3.49048 16.0866 3.60118 16.1378 3.84923L16.1522 3.94763V5.7424C16.1522 6.05503 16.0466 6.28565 15.8098 6.33178L15.7156 6.341H11.4464C11.141 6.341 10.8345 6.6321 10.7822 6.94883L10.774 7.04518V25.0647C10.774 25.3455 10.5875 25.488 10.4286 25.5157L10.3702 25.5208H7.71543C7.56782 25.5208 7.44585 25.3599 7.41817 25.1539L7.41203 25.0637V7.04416C7.41203 6.75716 7.13425 6.41071 6.88107 6.35023L6.80728 6.341H2.50432C2.35672 6.341 2.23577 6.23338 2.20707 6.01813L2.20092 5.9187V3.94763C2.20092 3.78978 2.33725 3.54583 2.6591 3.49868L2.77185 3.49048H15.6817H15.6828Z" fill="white"/>
</svg>
